<svg width="418" height="566" viewBox="0 0 418 566" fill="none" xmlns="http://www.w3.org/2000/svg">
<path fill-rule="evenodd" clip-rule="evenodd" d="M73.1048 506.762L95.3201 525.403L67.6802 558.343C64.4852 562.151 58.8084 562.648 55.0008 559.452L39.6799 546.597L73.1048 506.762Z" fill="#D8D8D8"/>
<path fill-rule="evenodd" clip-rule="evenodd" d="M331.895 506.762L309.68 525.403L337.32 558.343C340.515 562.151 346.192 562.648 349.999 559.452L365.32 546.597L331.895 506.762Z" fill="#D8D8D8"/>
<path fill-rule="evenodd" clip-rule="evenodd" d="M243.317 124.53L382.313 195.351C401.737 157 386.464 110.141 348.138 90.6131C309.755 71.056 262.786 86.3174 243.229 124.7L243.317 124.53Z" fill="#99D5E9"/>
<path d="M320.309 162.852L306.053 155.589L294.249 178.755L308.505 186.019L320.309 162.852Z" fill="#D8D8D8"/>
<path fill-rule="evenodd" clip-rule="evenodd" d="M35.4461 195.351L174.442 124.529C154.832 86.2719 107.945 71.085 69.6196 90.613C31.2366 110.17 15.9753 157.14 35.5324 195.523L35.4461 195.351Z" fill="#99D5E9"/>
<path d="M111.705 155.589L97.4487 162.852L109.252 186.019L123.509 178.755L111.705 155.589Z" fill="#D8D8D8"/>
<path fill-rule="evenodd" clip-rule="evenodd" d="M80 75.6794C80 34.3008 113.209 0.678448 154.428 0.0101389L155.679 0H263.321L264.572 0.0101389C305.379 0.671765 338.335 33.6316 338.99 74.4404L339 75.6794L338.996 76.052L339 76.051V85.0002L332.793 84.9993L332.796 84.6267C332.796 43.2021 299.551 9.54234 258.286 8.87329L257.033 8.86314H163.518C122.093 8.86314 88.4337 42.1086 87.7647 83.3738L87.7554 85.0002H80V75.6794Z" fill="#D8D8D8"/>
<path fill-rule="evenodd" clip-rule="evenodd" d="M54.0139 92.6227L79.8391 79.9497C82.1053 78.8376 84.845 79.7273 86.0254 81.9586C87.1605 84.1042 86.3414 86.7637 84.1958 87.8988C84.1564 87.9197 84.1167 87.9399 84.0767 87.9595L58.2516 100.633C55.9854 101.745 53.2457 100.855 52.0652 98.6236C50.9301 96.478 51.7492 93.8185 53.8948 92.6834C53.9342 92.6625 53.9739 92.6423 54.0139 92.6227Z" fill="#D8D8D8"/>
<path fill-rule="evenodd" clip-rule="evenodd" d="M339.054 79.2005L364.879 91.8735C367.058 92.9429 367.958 95.5763 366.888 97.7554C366.869 97.7954 366.848 97.8351 366.828 97.8745C365.647 100.106 362.907 100.995 360.641 99.8834L334.816 87.2104C332.637 86.1411 331.737 83.5077 332.807 81.3285C332.826 81.2885 332.847 81.2488 332.867 81.2094C334.048 78.9781 336.788 78.0885 339.054 79.2005Z" fill="#D8D8D8"/>
<path fill-rule="evenodd" clip-rule="evenodd" d="M59.5722 76.484L63.1674 74.7305C65.6493 73.52 68.6427 74.5506 69.8532 77.0326L72.9218 83.3242L60.3387 89.4614L57.2701 83.1698C56.0596 80.6878 57.0903 77.6945 59.5722 76.484Z" fill="#C3C3C3"/>
<path fill-rule="evenodd" clip-rule="evenodd" d="M357.529 75.0456L355.731 74.1689C352.753 72.7162 349.161 73.9531 347.708 76.9314L345.078 82.3242L357.661 88.4614L360.292 83.0686C361.744 80.0902 360.507 76.4982 357.529 75.0456Z" fill="#C3C3C3"/>
<path d="M210.977 108H207.024V164H210.977V108Z" fill="#D8D8D8"/>
<path d="M230 96H188C185.791 96 184 97.7909 184 100V105C184 107.209 185.791 109 188 109H230C232.209 109 234 107.209 234 105V100C234 97.7909 232.209 96 230 96Z" fill="#D8D8D8"/>
<path d="M209 566C324.428 566 418 472.428 418 357C418 241.572 324.428 148 209 148C93.5725 148 0 241.572 0 357C0 472.428 93.5725 566 209 566Z" fill="#C9EFFC"/>
<path d="M209 533C306.202 533 385 454.202 385 357C385 259.798 306.202 181 209 181C111.798 181 33 259.798 33 357C33 454.202 111.798 533 209 533Z" fill="#99D5E9"/>
<path fill-rule="evenodd" clip-rule="evenodd" d="M208.5 439C253.511 439 290 402.511 290 357.5C290 312.489 253.511 276 208.5 276C163.489 276 127 312.489 127 357.5C127 402.511 163.489 439 208.5 439Z" stroke="#F5F5F5" stroke-width="3" stroke-linecap="round" stroke-linejoin="round"/>
<path d="M208.5 372C217.06 372 224 365.06 224 356.5C224 347.94 217.06 341 208.5 341C199.94 341 193 347.94 193 356.5C193 365.06 199.94 372 208.5 372Z" fill="white"/>
</svg>
